{"title":"The Musketeers S01E03 Commodities HDTV x264 AAC E-Subs [GWC].mp4","uid":9561050,"size":194543101,"categoryP":"video","categoryS":"tv_shows","magnet":"?xt=urn:btih:471add05042682ee1a1e721047246c92559e62a6&amp;dn=The+Musketeers+S01E03+Commodities+HDTV+x264+AAC+E-Subs+%5BGWC%5D.mp4&amp;tr=udp%3A%2F%2Ftracker.openbittorrent.com%3A80&amp;tr=udp%3A%2F%2Fopen.demonii.com%3A1337&amp;tr=udp%3A%2F%2Ftracker.coppersurfer.tk%3A6969&amp;tr=udp%3A%2F%2Fexodus.desync.com%3A6969","seeders":2,"leechers":0,"uploader":"canc232","files":1,"time":1391425229,"description":"The Musketeers S01E03 Commodities HDTV x264 AAC E-Subs [GWC]\n\n\nSCREENS : &lt;a href=&quot;\nhttp://imageshack.com/a/img819/7755/19ul.jpg&quot; rel=&quot;nofollow&quot; target=&quot;_NEW&quot;&gt;\nhttp://imageshack.com/a/img819/7755/19ul.jpg&lt;/a&gt; &lt;a href=&quot;\nhttp://imageshack.com/a/img849/3844/vs6q.jpg&quot; rel=&quot;nofollow&quot; target=&quot;_NEW&quot;&gt;\nhttp://imageshack.com/a/img849/3844/vs6q.jpg&lt;/a&gt; &lt;a href=&quot;\nhttp://imageshack.com/a/img36/9786/vis.JPG&quot; rel=&quot;nofollow&quot; target=&quot;_NEW&quot;&gt;\nhttp://imageshack.com/a/img36/9786/vis.JPG&lt;/a&gt;\n\n\nMEDIA INFO :\nGeneral \nFormat : MPEG-4 \nFormat profile : Base Media \nFile size : 186 MiB \nDuration : 54mn 57s \nOverall bit rate : 472 Kbps \n\nVideo \nFormat : AVC \nFormat profile : &lt;a class=&quot;__cf_email__&quot; href=&quot;/cdn-cgi/l/email-protection&quot; data-cfemail=&quot;460e2f212e060a756876&quot;&gt;[email&amp;#160;protected]&lt;/a&gt;&lt;script cf-hash='f9e31' type=&quot;text/javascript&quot;&gt;\n/* &lt;![CDATA[ */!function(){try{var t=&quot;currentScript&quot;in document?document.currentScript:function(){for(var t=document.getElementsByTagName(&quot;script&quot;),e=t.length;e--;)if(t[e].getAttribute(&quot;cf-hash&quot;))return t[e]}();if(t&amp;&amp;t.previousSibling){var e,r,n,i,c=t.previousSibling,a=c.getAttribute(&quot;data-cfemail&quot;);if(a){for(e=&quot;&quot;,r=parseInt(a.substr(0,2),16),n=2;a.length-n;n+=2)i=parseInt(a.substr(n,2),16)^r,e+=String.fromCharCode(i);e=document.createTextNode(e),c.parentNode.replaceChild(e,c)}}}catch(u){}}();/* ]]&gt; */&lt;/script&gt; \nFormat settings, CABAC : Yes \nFormat settings, ReFrames : 4 frames \nDuration : 54mn 57s \nBit rate : 409 Kbps \nWidth : 720 pixels \nHeight : 404 pixels \nDisplay aspect ratio : 16:9 \nFrame rate : 25.000 fps \nStream size : 161 MiB (87%) \nTitle : The Musketeers S01E03 Commodities HDTV x264 AAC E-Subs [GWC] \nWriting library : x264 core \n\nAudio \nFormat : AAC \nFormat profile : HE-AAC / LC \nDuration : 54mn 57s \nBit rate mode : Variable \nChannel(s) : 2 channels \nSampling rate : 48.0 KHz / 24.0 KHz \nStream size : 23.6 MiB (13%) \nLanguage : English \n\nText \nFormat : Timed Text \nDuration : 54mn 44s \nStream size : 25.0 KiB (0%) \nTitle : English Subtitle by Stubbie \nLanguage : English","torrent":{"xt":"urn:btih:471add05042682ee1a1e721047246c92559e62a6","amp;dn":"The+Musketeers+S01E03+Commodities+HDTV+x264+AAC+E-Subs+%5BGWC%5D.mp4","amp;tr":["udp%3A%2F%2Ftracker.openbittorrent.com%3A80","udp%3A%2F%2Fopen.demonii.com%3A1337","udp%3A%2F%2Ftracker.coppersurfer.tk%3A6969","udp%3A%2F%2Fexodus.desync.com%3A6969"],"infoHash":"471add05042682ee1a1e721047246c92559e62a6","infoHashBuffer":{"type":"Buffer","data":[71,26,221,5,4,38,130,238,26,30,114,16,71,36,108,146,85,158,98,166]},"announce":[],"urlList":[]}}